#!OML:ASF Y:\EmotionMaleHayes\Project 1\Capture day 1\Session 1\Male1.ASF
:FULLY-SPECIFIED
:DEGREES
401
root -29.1453 16.911 -12.3723 -2.92818 151.928 -4.16416
lowerback 8.72533 2.06086 -8.19299
upperback 5.56713 2.88837 -4.48228
thorax 0.812415 1.6182 -0.296513
lowerneck -18.6456 -3.26359 2.01888
upperneck 41.5872 -1.24176 -1.74166
head 18.9505 0.733918 -1.07173
rclavicle -9.14409e-015 4.45278e-014
rhumerus -39.7872 11.4739 -82.9232
rradius 71.1661
rwrist -2.68255
rhand -14.5112 -30.382
rfingers 7.12502
rthumb 11.6362 -60.0389
lclavicle -9.14409e-015 4.45278e-014
lhumerus -35.4457 8.75699 58.8824
lradius 29.9326
lwrist -4.41605
lhand -18.8366 -20.8645
lfingers 7.12502
lthumb 7.4629 8.98383
rfemur -2.81586 1.8118 14.2877
rtibia 27.5739
rfoot -21.1657 4.858
rtoes -0.11823
lfemur -2.20637 2.17806 -14.4524
ltibia 12.0131
lfoot -10.133 12.6611
ltoes -14.1804
402
root -29.1273 16.9544 -12.3742 -3.65516 150.477 -3.16213
lowerback 10.4901 2.45616 -8.00037
upperback 5.63396 3.23803 -4.1842
thorax -0.110694 1.82372 -0.21462
lowerneck -18.6864 -3.23649 1.79953
upperneck 41.4762 -1.1307 -1.83674
head 18.9 0.707154 -1.0608
rclavicle 2.06736e-014 -1.43125e-014
rhumerus -40.2836 11.6093 -83.2727
rradius 70.3473
rwrist -2.88208
rhand -13.7056 -29.8039
rfingers 7.12502
rthumb 12.413 -59.4153
lclavicle 2.06736e-014 -1.43125e-014
lhumerus -35.046 8.3569 58.8225
lradius 30.9818
lwrist -2.72831
lhand -20.2956 -20.8295
lfingers 7.12502
lthumb 6.0544 9.06394
rfemur -2.36095 4.17899 16.2129
rtibia 28.7055
rfoot -20.9408 3.47444
rtoes -0.314214
lfemur -0.465777 2.8313 -12.5726
ltibia 11.7862
lfoot -10.2337 13.4417
ltoes -15.0832
403
root -29.128 16.9552 -12.3982 -2.99081 149.17 -2.19063
lowerback 10.6004 2.58113 -7.59185
upperback 5.40008 3.35406 -3.99692
thorax -0.422272 1.87513 -0.271834
lowerneck -18.7276 -3.12931 1.6456
upperneck 41.426 -0.89268 -1.95309
head 18.8906 0.742884 -1.0447
rclavicle -4.01545e-014 -6.67916e-014
rhumerus -40.6189 11.8941 -83.626
rradius 69.3076
rwrist -2.79968
rhand -12.9735 -29.4311
rfingers 7.12502
rthumb 13.1188 -58.9985
lclavicle -4.01545e-014 -6.67916e-014
lhumerus -34.698 8.71315 58.4774
lradius 31.8002
lwrist -1.76985
lhand -21.9135 -20.951
lfingers 7.12502
lthumb 4.49229 8.9814
rfemur -3.80337 4.55569 17.2015
rtibia 30.5409
rfoot -20.5136 3.93941
rtoes 0.864501
lfemur -0.3321 3.19139 -11.307
ltibia 11.7923
lfoot -10.6855 14.2558
ltoes -13.2452
404
root -29.1271 16.953 -12.4451 -3.0548 148.512 -2.15343
lowerback 10.785 2.58274 -7.6408
upperback 5.32797 3.33307 -4.20474
thorax -0.586048 1.87621 -0.471485
lowerneck -19.0318 -3.21694 1.86452
upperneck 41.6463 -0.96888 -2.33202
head 19.1016 0.692344 -1.29122
rclavicle 2.94201e-014 9.85972e-014
rhumerus -40.9081 11.783 -84.1473
rradius 68.1834
rwrist -2.87202
rhand -12.775 -29.3532
rfingers 7.12502
rthumb 13.3101 -58.9082
lclavicle 2.94201e-014 9.85972e-014
lhumerus -34.034 8.24853 58.1989
lradius 32.6107
lwrist -0.406972
lhand -22.9097 -20.4493
lfingers 7.12502
lthumb 3.53033 9.50123
rfemur -4.39378 4.42261 17.1489
rtibia 31.6938
rfoot -20.2092 4.17241
rtoes 1.76245
lfemur 0.0752939 3.10141 -11.3299
ltibia 11.7978
lfoot -11.2624 14.7007
ltoes -10.6208
405
root -29.1234 16.9496 -12.4932 -3.42698 147.954 -2.61409
lowerback 10.9832 2.69501 -7.94068
upperback 5.28916 3.461 -4.58991
thorax -0.726025 1.96028 -0.736676
lowerneck -19.04 -3.31809 1.97318
upperneck 41.6679 -1.21526 -2.2956
head 19.1051 0.613551 -1.34729
rclavicle 1.51076e-014 4.45278e-014
rhumerus -41.2704 11.2922 -84.5927
rradius 67.2285
rwrist -2.64586
rhand -12.3272 -29.6908
rfingers 7.12502
rthumb 13.7417 -59.2171
lclavicle 1.51076e-014 4.45278e-014
lhumerus -33.2091 3.85189 59.077
lradius 33.7481
lwrist 4.41625
lhand -24.112 -19.8975
lfingers 7.12502
lthumb 2.36922 10.0691
rfemur -4.84435 4.18088 16.5964
rtibia 32.7056
rfoot -20.1617 4.16591
rtoes 0.481354
lfemur 0.498861 3.10802 -11.8948
ltibia 11.8496
lfoot -11.5798 15.14
ltoes -10.5602
406
root -29.1259 16.9452 -12.5388 -3.86295 147.262 -3.44262
lowerback 11.0154 2.83968 -8.73962
upperback 5.24192 3.59538 -4.85717
thorax -0.814015 2.03433 -0.598929
lowerneck -18.9922 -3.3503 1.72607
upperneck 41.5964 -1.26177 -2.15183
head 19.0524 0.564024 -1.24479
rclavicle -8.0309e-014 7.95139e-014
rhumerus -41.4298 11.1241 -84.6499
rradius 66.0314
rwrist -2.15622
rhand -11.6498 -29.6901
rfingers 7.12502
rthumb 14.3944 -59.171
lclavicle -8.0309e-014 7.95139e-014
lhumerus -32.6075 3.17928 59.1369
lradius 34.842
lwrist 5.60996
lhand -25.2234 -19.4841
lfingers 7.12502
lthumb 1.29579 10.4917
rfemur -5.63172 4.00715 15.5747
rtibia 33.6051
rfoot -19.7809 4.78694
rtoes 3.25276
lfemur 0.71063 3.29593 -12.8392
ltibia 12.0117
lfoot -11.9452 15.5848
ltoes -10.7724
407
root -29.1162 16.9415 -12.5768 -4.20867 146.673 -4.04922
lowerback 11.0185 2.83145 -9.66468
upperback 5.24615 3.51411 -4.95399
thorax -0.836689 1.9902 -0.185256
lowerneck -18.9713 -3.1853 1.70842
upperneck 41.5111 -0.958887 -2.30449
head 19.0039 0.643414 -1.2549
rclavicle -6.16232e-014 1.90833e-014
rhumerus -41.4164 11.3962 -84.7418
rradius 64.7055
rwrist -1.9
rhand -10.9904 -29.5195
rfingers 7.12502
rthumb 15.0297 -58.9539
lclavicle -6.16232e-014 1.90833e-014
lhumerus -32.0214 4.56049 58.6835
lradius 35.621
lwrist 4.97485
lhand -25.898 -19.5781
lfingers 7.12502
lthumb 0.644218 10.4007
rfemur -6.27108 3.55302 14.9075
rtibia 34.6645
rfoot -19.9354 4.28712
rtoes -0.630382
lfemur 0.858271 3.90897 -13.3825
ltibia 12.2903
lfoot -11.8054 15.7694
ltoes -13.7411
408
root -29.1009 16.9361 -12.6137 -4.36735 146.002 -4.31633
lowerback 11.0152 2.80388 -10.1645
upperback 5.20505 3.4388 -5.12303
thorax -0.880528 1.95624 -0.0819813
lowerneck -18.8918 -2.9902 1.91595
upperneck 41.4502 -0.706848 -2.419
head 18.9496 0.749764 -1.29602
rclavicle 6.04305e-014 -5.24792e-014
rhumerus -41.5421 11.6223 -85.1471
rradius 63.5534
rwrist -1.53299
rhand -10.2612 -29.5896
rfingers 7.12502
rthumb 15.7321 -58.9701
lclavicle 6.04305e-014 -5.24792e-014
lhumerus -31.2085 5.63104 58.0329
lradius 36.1429
lwrist 4.39134
lhand -26.0337 -19.4045
lfingers 7.12502
lthumb 0.513215 10.5746
rfemur -6.87406 3.10129 14.5626
rtibia 35.4625
rfoot -19.8758 3.86904
rtoes -1.25089
lfemur 1.09047 4.57311 -13.5274
ltibia 12.343
lfoot -11.1745 16.2065
ltoes -18.5826
409
root -29.0911 16.9334 -12.6419 -4.84006 144.705 -4.8951
lowerback 11.2352 3.1123 -10.734
upperback 5.07683 3.77504 -5.49162
thorax -1.15615 2.14739 -0.223777
lowerneck -18.7829 -2.98545 2.09428
upperneck 41.4667 -0.757103 -2.46163
head 18.9239 0.750768 -1.35923
rclavicle -1.59028e-015 5.08889e-014
rhumerus -41.827 11.4644 -85.6514
rradius 62.4396
rwrist -1.12478
rhand -10.2143 -29.6296
rfingers 7.12502
rthumb 15.7773 -59.0066
lclavicle -1.59028e-015 5.08889e-014
lhumerus -30.2112 5.81295 57.5143
lradius 36.7934
lwrist 4.48073
lhand -26.1839 -18.1535
lfingers 7.12502
lthumb 0.368132 11.8259
rfemur -7.70438 3.0983 13.9922
rtibia 36.1974
rfoot -19.5843 3.9622
rtoes 0.459193
lfemur 1.65371 5.41555 -13.9253
ltibia 12.2337
lfoot -11.0476 16.7933
ltoes -19.4777
410
root -29.0819 16.8613 -12.7053 -2.9197 145.216 -5.03005
lowerback 9.07212 2.56099 -10.4379
upperback 4.65428 3.30627 -5.92513
thorax -0.352392 1.88313 -0.663587
lowerneck -18.6602 -3.00703 2.30787
upperneck 41.4847 -0.865612 -2.49027
head 18.8917 0.738148 -1.43336
rclavicle -8.94531e-014 4.45278e-014
rhumerus -42.186 11.0414 -86.1468
rradius 61.323
rwrist -0.560823
rhand -10.0969 -29.7401
rfingers 7.12502
rthumb 15.8904 -59.1081
lclavicle -8.94531e-014 4.45278e-014
lhumerus -29.2671 5.28966 57.2542
lradius 37.7859
lwrist 5.02511
lhand -26.3998 -18.8589
lfingers 7.12502
lthumb 0.159619 11.1208
rfemur -10.387 1.07304 13.0814
rtibia 36.4741
rfoot -19.2342 4.12662
rtoes 1.54291
lfemur -0.764778 4.89432 -14.6574
ltibia 12.905
lfoot -11.5966 16.9644
ltoes -16.7512
411
root -29.0659 16.9334 -12.7265 -5.26438 144.83 -5.30643
lowerback 11.5831 2.7463 -11.1373
upperback 5.17206 3.26042 -5.84562
thorax -1.19295 1.91584 -0.324718
lowerneck -18.6636 -2.97654 1.85624
upperneck 41.5456 -0.729491 -2.27041
head 18.9468 0.746495 -1.22037
rclavicle -5.64548e-014 7.79236e-014
rhumerus -42.281 11.1111 -86.2463
rradius 60.1873
rwrist 0.0955864
rhand -10.616 -29.5341
rfingers 7.12502
rthumb 15.3904 -58.9413
lclavicle -5.64548e-014 7.79236e-014
lhumerus -28.4758 5.29849 57.2084
lradius 38.5245
lwrist 5.73906
lhand -26.0058 -18.4885
lfingers 7.12502
lthumb 0.540183 11.4905
rfemur -8.13865 1.28793 12.9904
rtibia 35.3961
rfoot -18.3733 4.20268
rtoes 9.40459
lfemur 1.88089 4.92241 -14.5174
ltibia 12.818
lfoot -12.3691 16.8482
ltoes -12.9214
412
root -29.0486 16.9298 -12.7615 -5.59772 144.647 -5.70882
lowerback 11.2002 2.60481 -12.3173
upperback 5.56841 3.07761 -5.43003
thorax -0.602628 1.76982 0.810811
lowerneck -19.1035 -2.92461 0.555603
upperneck 41.6724 -0.309556 -1.87732
head 19.1888 0.739551 -0.717915
rclavicle -7.95139e-016 1.04958e-013
rhumerus -41.8611 11.9037 -85.6306
rradius 59.0428
rwrist 0.415249
rhand -11.1063 -28.9768
rfingers 7.12502
rthumb 14.918 -58.4196
lclavicle -7.95139e-016 1.04958e-013
lhumerus -27.6434 6.17686 57.8219
lradius 39.4269
lwrist 6.08743
lhand -25.9694 -18.0505
lfingers 7.12502
lthumb 0.575322 11.9285
rfemur -8.44172 0.141146 12.47
rtibia 36.1316
rfoot -18.8799 2.75106
rtoes 1.34169
lfemur 2.10687 4.70991 -14.9562
ltibia 12.9494
lfoot -13.04 16.9484
ltoes -9.48956
413
root -29.031 16.9305 -12.7967 -5.82687 144.35 -5.83771
lowerback 10.748 2.87008 -13.8209
upperback 5.99646 3.4011 -4.56066
thorax -0.0275206 1.83428 2.532
lowerneck -18.8942 -3.09945 0.670903
upperneck 41.2843 -0.216415 -2.98868
head 18.8864 0.609151 -1.25822
rclavicle -6.2816e-014 -3.18055e-014
rhumerus -41.6263 12.1709 -84.2242
rradius 57.9298
rwrist 0.874239
rhand -11.2195 -28.407
rfingers 7.12502
rthumb 14.8091 -57.8578
lclavicle -6.2816e-014 -3.18055e-014
lhumerus -26.3919 7.20167 59.2232
lradius 40.0443
lwrist 5.49667
lhand -26.0056 -17.5058
lfingers 7.12502
lthumb 0.540357 12.4733
rfemur -8.61372 -0.586409 12.1991
rtibia 36.3987
rfoot -19.4843 1.61826
rtoes -4.74249
lfemur 2.45443 4.45825 -15.133
ltibia 12.9729
lfoot -13.4469 17.3705
ltoes -8.4529
